<svg width="200" height="50" viewBox="0 0 200 50" fill="none" xmlns="http://www.w3.org/2000/svg">
  <rect width="200" height="50" rx="8" fill="#2563eb"/>
  <!-- Menu icon -->
  <g transform="translate(15, 13)">
    <path fill="white" d="M4 18q-.425 0-.712-.288T3 17t.288-.712T4 16h10q.425 0 .713.288T15 17t-.288.713T14 18zm0-5q-.425 0-.712-.288T3 12t.288-.712T4 11h16q.425 0 .713.288T21 12t-.288.713T20 13zm0-5q-.425 0-.712-.288T3 7t.288-.712T4 6h16q.425 0 .713.288T21 7t-.288.713T20 8z"/>
  </g>
  <!-- Notes text -->
  <text x="50" y="30" text-anchor="start" fill="white" font-family="Arial, sans-serif" font-size="20" font-weight="bold">Notes</text>
</svg>
